<svg width="479" height="433" viewBox="0 0 479 433" fill="none" xmlns="http://www.w3.org/2000/svg">
<path d="M199.5 240C91.433 250.955 56.5205 306.881 8.08864 384.464C-1.51704 399.852 -11.6545 416.091 -23 433L-14.5 -4H479C479 -4 417.5 16 399 39C380.5 62 367.5 119 367.5 119C343.1 198.028 295 225 199.5 240Z" fill="url(#paint0_linear_9_68)"/>
<path d="M199.5 240C91.433 250.955 56.5205 306.881 8.08864 384.464C-1.51704 399.852 -11.6545 416.091 -23 433L-14.5 -4H479C479 -4 417.5 16 399 39C380.5 62 367.5 119 367.5 119C343.1 198.028 295 225 199.5 240Z" stroke="#96C142"/>
<defs>
<linearGradient id="paint0_linear_9_68" x1="358" y1="433" x2="-67" y2="-58" gradientUnits="userSpaceOnUse">
<stop offset="0.459181" stop-color="#96C142"/>
<stop offset="1" stop-color="#56AB2F"/>
</linearGradient>
</defs>
</svg>
